:SAMPLES-PER-SECOND 30
:FULLY-SPECIFIED
:DEGREES
208
root  35.01810089 36.48730601 -14.99751534 7.890975952 -7.786044121 4.42987299
lowerback  -7.568939209 -1.178260684 -1.126400471
upperback  -3.619339228 -1.038665056 -3.880470037
thorax  0.4505392909 -0.3624042571 -3.452899933
lowerneck  0.8653029799 -19.4416008 -13.8185997
upperneck  11.80739975 -27.72360039 16.58519936
head  7.781300068 -13.07870007 4.692790031
lclavicle  0 -4.497500157e-015 -2.743230041e-014
lhumerus  -46.96480179 27.3362999 64.18399811
lradius  -0.008600196801 -6.507048965e-006 29.9761982
lwrist  4.824992743e-007 -3.790274832e-007 -28.68079948
lhand  -4.445301581e-031 -37.40610123 -10.61030006
lfingers  90 7.125020027 -90
lthumb  95.03889657 -25.42898564 101.6039999
rclavicle  0 -4.497500157e-015 -2.743230041e-014
rhumerus  -24.86440277 -41.01540375 -4.470128059
rradius  -5.16745672e-007 2.214343908e-008 41.20750046
rwrist  -7.499573258e-005 0.03438235447 -163.052002
rhand  -1.771034257e-031 4.505040169 -7.966340065
rfingers  -90 -7.125020027 -90
rthumb  -85.2685288 -8.163959088 -59.76434818
rfemur  -12.89778519 17.15512466 11.63252926
rtibia  -1.671033621 -1.822880626 21.74740028
rfoot  0.1669567823 -22.84313774 -34.72454834
rtoes  3.838980138 19.6429218 -101.288929
lfemur  -8.371988297 -17.75302887 -21.64387321
ltibia  2.002442598 -2.759688854 15.81980038
lfoot  1.156193137 -21.00495911 39.83076477
ltoes  -8.627735139 -18.11248621 -116.01532
209
root  35.01748213 36.48787371 -14.9978052 7.902154446 -7.773142815 4.426963329
lowerback  -7.570950985 -1.177915335 -1.127034545
upperback  -3.619815111 -1.037736058 -3.873389959
thorax  0.4528542757 -0.3618521094 -3.446049929
lowerneck  0.7511550188 -19.36149979 -13.72239971
upperneck  11.83539963 -27.5951004 16.50300026
head  7.762479782 -13.01169968 4.670430183
lclavicle  0 -4.497500157e-015 -2.743230041e-014
lhumerus  -46.97489929 27.47949982 64.14299774
lradius  -0.007485544775 -6.507048965e-006 29.95249939
lwrist  4.824992743e-007 -3.790274832e-007 -28.83139992
lhand  -0 -37.41360092 -10.57089996
lfingers  90 7.125020027 -90
lthumb  95.03366435 -25.39014269 101.6083227
rclavicle  0 -4.497500157e-015 -2.743230041e-014
rhumerus  -25.03429794 -41.75870132 -4.392780304
rradius  -5.16745672e-007 2.214343908e-008 41.34460068
rwrist  -7.499573258e-005 0.03438235447 -162.3959961
rhand  -1.770990629e-031 4.487090111 -7.898560047
rfingers  -90 -7.125020027 -90
rthumb  -85.23808625 -8.221285282 -59.77697661
rfemur  -12.90137196 17.13687897 11.62434196
rtibia  -1.661664128 -1.812782288 21.74183655
rfoot  0.1722028553 -22.82713699 -34.7141304
rtoes  3.845390409 19.6417156 -101.3079988
lfemur  -8.401626587 -17.65647888 -21.6213913
ltibia  1.989808798 -2.706463575 15.83201885
lfoot  1.173237324 -21.12936401 39.80944824
ltoes  -8.676498845 -18.08978562 -116.1722702
210
root  35.01654798 36.48811701 -14.998047 7.90511179 -7.750944614 4.418676376
lowerback  -7.572642803 -1.177700043 -1.127450109
upperback  -3.622720003 -1.036659956 -3.863679886
thorax  0.4521259964 -0.3610709906 -3.435899973
lowerneck  0.6652879715 -19.27960014 -13.67560005
upperneck  11.83320045 -27.46619987 16.44070053
head  7.739359856 -12.94939995 4.662260056
lclavicle  0 -4.497500157e-015 -2.743230041e-014
lhumerus  -46.97710037 27.58779907 64.11930084
lradius  -0.006464750972 -6.507048965e-006 29.93899918
lwrist  4.824992743e-007 -3.790274832e-007 -28.91180038
lhand  -4.443487325e-031 -37.37549973 -10.68400002
lfingers  90 7.125020027 -90
lthumb  95.0409921 -25.50240271 101.57837
rclavicle  0 -4.497500157e-015 -2.743230041e-014
rhumerus  -25.10070038 -41.19279861 -4.373890877
rradius  -5.16745672e-007 2.214343908e-008 41.54439926
rwrist  -7.499573258e-005 0.03438235447 -162.9960022
rhand  -1.770923262e-031 4.459229946 -7.887710094
rfingers  -90 -7.125020027 -90
rthumb  -85.23881686 -8.228764604 -59.80331655
rfemur  -12.90116501 17.12425232 11.63677406
rtibia  -1.656662345 -1.798497796 21.74737358
rfoot  0.1653089225 -22.81388664 -34.72975159
rtoes  3.827904111 19.64500098 -101.2559817
lfemur  -8.423112869 -17.63241386 -21.59552383
ltibia  1.97195971 -2.686990738 15.85153198
lfoot  1.160495996 -21.17611313 39.7605629
ltoes  -8.700934684 -18.0783498 -116.2509908
211
root  35.01589918 36.48793979 -14.99828279 7.896710396 -7.731972694 4.403586388
lowerback  -7.573060036 -1.177970052 -1.125730515
upperback  -3.631429911 -1.035380006 -3.877650023
thorax  0.4429039955 -0.3598209918 -3.451270103
lowerneck  0.5380300283 -19.18619919 -13.59899998
upperneck  11.875 -27.32439804 16.38750076
head  7.733029842 -12.87310028 4.650819778
lclavicle  0 -4.497500157e-015 -2.743230041e-014
lhumerus  -46.98130035 27.58679962 64.09829712
lradius  -0.005458729807 -6.507048965e-006 29.96980286
lwrist  4.824992743e-007 -3.790274832e-007 -28.89710045
lhand  -4.443185217e-031 -37.37039948 -10.66049957
lfingers  90 7.125020027 -90
lthumb  95.03337464 -25.47951702 101.5706858
rclavicle  0 -4.497500157e-015 -2.743230041e-014
rhumerus  -25.21839905 -40.81380081 -4.362630367
rradius  -5.16745672e-007 2.214343908e-008 41.75260162
rwrist  -7.499573258e-005 0.03438235447 -163.4329987
rhand  -3.541852744e-031 4.460519791 -7.899250031
rfingers  -90 -7.125020027 -90
rthumb  -85.24437172 -8.218890835 -59.80282813
rfemur  -12.8785944 17.12268257 11.65624237
rtibia  -1.647050977 -1.78723073 21.73164749
rfoot  0.1671903729 -22.80843544 -34.74808502
rtoes  3.84332491 19.64210449 -101.301854
lfemur  -8.418540001 -17.66784096 -21.57460785
ltibia  1.960572481 -2.689544201 15.86667633
lfoot  1.153002858 -21.17056274 39.7561264
ltoes  -8.711290537 -18.07349113 -116.284367
212
root  35.01521734 36.48792777 -14.99848854 7.892685413 -7.709093094 4.399398327
lowerback  -7.57060957 -1.147600055 -1.043159962
upperback  -3.644520044 -0.9973509908 -3.924200058
thorax  0.4273490012 -0.3409120142 -3.543339968
lowerneck  0.4075320065 -19.09639931 -13.51029968
upperneck  11.94690037 -27.19039917 16.33670044
head  7.737239838 -12.79710007 4.636429787
lclavicle  0 -4.497500157e-015 -2.743230041e-014
lhumerus  -46.94279861 27.55520058 64.0617981
lradius  -0.004388398025 -6.507048965e-006 29.92869949
lwrist  4.824992743e-007 -3.790274832e-007 -29.03190041
lhand  -4.443108176e-031 -37.36909866 -10.60400009
lfingers  90 7.125020027 -90
lthumb  95.02018902 -25.42417991 101.56385
rclavicle  0 -4.497500157e-015 -2.743230041e-014
rhumerus  -25.53120041 -40.91159821 -4.229058266
rradius  -5.16745672e-007 2.214343908e-008 41.98139954
rwrist  -7.499573258e-005 0.03438235447 -163.4140015
rhand  -1.770856439e-031 4.431419849 -7.874579906
rfingers  -90 -7.125020027 -90
rthumb  -85.23837099 -8.238225419 -59.82938974
rfemur  -12.86855602 17.1104393 11.66419411
rtibia  -1.642323017 -1.796812177 21.7331562
rfoot  0.152555123 -22.84955788 -34.77173996
rtoes  3.858956542 19.639156 -101.3483602
lfemur  -8.391310692 -17.7106514 -21.57924271
ltibia  1.977557659 -2.698696375 15.838727
lfoot  1.146004438 -21.11697006 39.76364899
ltoes  -8.700289066 -18.07865246 -116.2489103
